#N canvas 73 218 605 441 10;
#X obj 264 45 inlet;
#X obj 267 98 hsl 128 15 -10 10 0 0 empty empty empty -2 -8 0 10 -262144
-1 -1 6715 1;
#X obj 264 388 outlet;
#X obj 264 128 + 10;
#X floatatom 264 199 5 0 0 0 - - -;
#X floatatom 264 325 5 0 0 0 - - -;
#X floatatom 264 262 5 0 0 0 - - -;
#X obj 264 293 * 50;
#X obj 264 71 * -1;
#X obj 264 356 + 50;
#X obj 264 167 * 5;
#X obj 264 230 / 50;
#X floatatom 322 120 5 0 0 0 - - -;
#X connect 0 0 8 0;
#X connect 1 0 3 0;
#X connect 1 0 12 0;
#X connect 3 0 10 0;
#X connect 4 0 11 0;
#X connect 5 0 9 0;
#X connect 6 0 7 0;
#X connect 7 0 5 0;
#X connect 8 0 1 0;
#X connect 9 0 2 0;
#X connect 10 0 4 0;
#X connect 11 0 6 0;
