#N canvas 505 103 868 577 10;
#N canvas 764 368 450 300 ip 0;
#X obj 43 26 inlet;
#X obj 43 100 unpack f f f f f;
#X floatatom 43 137 5 0 0 0 - - -;
#X floatatom 66 163 5 0 0 0 - - -;
#X floatatom 89 190 5 0 0 0 - - -;
#X floatatom 112 215 5 0 0 0 - - -;
#X obj 43 63 route from;
#X connect 0 0 6 0;
#X connect 1 0 2 0;
#X connect 1 1 3 0;
#X connect 1 2 4 0;
#X connect 1 3 5 0;
#X connect 6 0 1 0;
#X restore 252 80 pd ip;
#X obj 117 80 mrpeach/unpackOSC;
#X obj 79 107 print;
#X obj 117 158 unpack f f f;
#X floatatom 186 188 5 0 0 0 - - -;
#X floatatom 151 209 5 0 0 0 - - -;
#X floatatom 117 234 5 0 0 0 - - -;
#X text 103 233 x;
#X text 137 208 y;
#X text 174 187 z;
#X obj 117 107 mrpeach/routeOSC /accxyz;
#X obj 96 316 sample_loop;
#X obj 159 269 pat_selector;
#X floatatom 159 292 5 0 0 0 - - -;
#N canvas 764 368 450 300 ip 0;
#X obj 43 26 inlet;
#X obj 43 100 unpack f f f f f;
#X floatatom 43 137 5 0 0 0 - - -;
#X floatatom 66 163 5 0 0 0 - - -;
#X floatatom 89 190 5 0 0 0 - - -;
#X floatatom 112 215 5 0 0 0 - - -;
#X obj 43 63 route from;
#X connect 0 0 6 0;
#X connect 1 0 2 0;
#X connect 1 1 3 0;
#X connect 1 2 4 0;
#X connect 1 3 5 0;
#X connect 6 0 1 0;
#X restore 564 79 pd ip;
#X obj 429 79 mrpeach/unpackOSC;
#X obj 391 106 print;
#X obj 429 156 unpack f f f;
#X floatatom 498 186 5 0 0 0 - - -;
#X floatatom 463 207 5 0 0 0 - - -;
#X floatatom 429 232 5 0 0 0 - - -;
#X text 415 231 x;
#X text 449 206 y;
#X text 486 185 z;
#X obj 429 106 mrpeach/routeOSC /accxyz;
#X text 163 31 device 1;
#X text 478 31 device 2;
#X obj 477 269 pat_selector;
#X floatatom 477 292 5 0 0 0 - - -;
#X obj 408 316 sample_loop2;
#X obj 15 442 find_tempo;
#N canvas 764 368 450 300 ip 0;
#X obj 43 26 inlet;
#X obj 43 100 unpack f f f f f;
#X floatatom 43 137 5 0 0 0 - - -;
#X floatatom 66 163 5 0 0 0 - - -;
#X floatatom 89 190 5 0 0 0 - - -;
#X floatatom 112 215 5 0 0 0 - - -;
#X obj 43 63 route from;
#X connect 0 0 6 0;
#X connect 1 0 2 0;
#X connect 1 1 3 0;
#X connect 1 2 4 0;
#X connect 1 3 5 0;
#X connect 6 0 1 0;
#X restore 793 79 pd ip;
#X obj 658 79 mrpeach/unpackOSC;
#X obj 620 106 print;
#X obj 658 159 unpack f f f;
#X floatatom 727 189 5 0 0 0 - - -;
#X floatatom 692 210 5 0 0 0 - - -;
#X floatatom 658 235 5 0 0 0 - - -;
#X text 644 234 x;
#X text 678 209 y;
#X text 715 188 z;
#X obj 658 106 mrpeach/routeOSC /accxyz;
#X obj 706 269 pat_selector;
#X floatatom 706 292 5 0 0 0 - - -;
#X text 707 31 device 3;
#X obj 637 316 sample_loop3;
#X obj 15 299 loadbang;
#X text 167 16 RED BOX;
#X text 476 16 GREEN BOX;
#X text 709 15 BLUE BOX;
#X obj 117 53 mrpeach/udpreceive 8020;
#X obj 429 52 mrpeach/udpreceive 8021;
#X obj 658 52 mrpeach/udpreceive 8022;
#X obj 443 131 mrpeach/routeOSC /box;
#X floatatom 581 148 5 0 0 0 - - -;
#X obj 127 131 mrpeach/routeOSC /box;
#X floatatom 265 148 5 0 0 0 - - -;
#X obj 671 131 mrpeach/routeOSC /box;
#X floatatom 809 148 5 0 0 0 - - -;
#X obj 96 411 play;
#X obj 265 173 sel 0 1 2 3;
#X obj 272 418 readsf~;
#X msg 237 213 0;
#X obj 408 401 play;
#X obj 638 405 play;
#X obj 243 481 dac~;
#X obj 257 440 *~;
#X msg 280 351 bang;
#X msg 272 394 open bonus.wav \, 1;
#X obj 278 371 metro 29504;
#X msg 255 243 0;
#X obj 96 386 *~;
#X msg 237 190 1;
#X obj 408 378 *~;
#X obj 638 383 *~;
#X obj 142 382 vline~;
#X msg 142 360 \$1 50;
#X obj 213 412 vline~;
#X msg 213 390 \$1 50;
#X obj 440 361 vline~;
#X msg 440 339 \$1 50;
#X obj 652 356 vline~;
#X msg 652 334 \$1 50;
#X msg 292 242 3;
#X connect 1 0 10 0;
#X connect 1 0 2 0;
#X connect 1 0 55 0;
#X connect 3 0 6 0;
#X connect 3 1 5 0;
#X connect 3 2 4 0;
#X connect 4 0 12 2;
#X connect 5 0 12 1;
#X connect 6 0 12 0;
#X connect 6 0 59 1;
#X connect 10 0 3 0;
#X connect 11 0 71 0;
#X connect 12 0 13 0;
#X connect 13 0 11 1;
#X connect 15 0 24 0;
#X connect 15 0 53 0;
#X connect 15 0 16 0;
#X connect 17 0 20 0;
#X connect 17 1 19 0;
#X connect 17 2 18 0;
#X connect 18 0 27 2;
#X connect 19 0 27 1;
#X connect 20 0 27 0;
#X connect 20 0 63 1;
#X connect 24 0 17 0;
#X connect 27 0 28 0;
#X connect 28 0 29 1;
#X connect 29 0 73 0;
#X connect 32 0 41 0;
#X connect 32 0 33 0;
#X connect 32 0 57 0;
#X connect 34 0 37 0;
#X connect 34 1 36 0;
#X connect 34 2 35 0;
#X connect 35 0 42 2;
#X connect 36 0 42 1;
#X connect 37 0 42 0;
#X connect 37 0 64 1;
#X connect 41 0 34 0;
#X connect 42 0 43 0;
#X connect 43 0 45 1;
#X connect 45 0 74 0;
#X connect 46 0 11 0;
#X connect 46 0 29 0;
#X connect 46 0 45 0;
#X connect 46 0 30 0;
#X connect 46 0 67 0;
#X connect 50 0 1 0;
#X connect 50 1 0 0;
#X connect 51 0 15 0;
#X connect 51 1 14 0;
#X connect 52 0 32 0;
#X connect 52 1 31 0;
#X connect 53 0 54 0;
#X connect 55 0 56 0;
#X connect 56 0 60 0;
#X connect 57 0 58 0;
#X connect 60 0 62 0;
#X connect 60 0 72 0;
#X connect 60 2 70 0;
#X connect 60 2 83 0;
#X connect 61 0 66 1;
#X connect 62 0 78 0;
#X connect 66 0 65 0;
#X connect 66 0 65 1;
#X connect 67 0 69 0;
#X connect 68 0 61 0;
#X connect 69 0 68 0;
#X connect 70 0 76 0;
#X connect 70 0 80 0;
#X connect 70 0 82 0;
#X connect 71 0 59 0;
#X connect 72 0 76 0;
#X connect 72 0 80 0;
#X connect 72 0 82 0;
#X connect 73 0 63 0;
#X connect 74 0 64 0;
#X connect 75 0 71 1;
#X connect 76 0 75 0;
#X connect 77 0 66 0;
#X connect 78 0 77 0;
#X connect 79 0 73 1;
#X connect 80 0 79 0;
#X connect 81 0 74 1;
#X connect 82 0 81 0;
#X connect 83 0 78 0;
