#N canvas 482 190 763 304 10;
#X obj 256 50 readsf~;
#X obj 256 85 dac~;
#X msg 221 26 0;
#X obj 336 51 bng 15 250 50 0 empty empty empty 17 7 0 10 -262144 -1
-1;
#X msg 256 26 open pat1.wav \, 1;
#X obj 414 48 readsf~;
#X obj 414 83 dac~;
#X msg 379 24 0;
#X msg 414 24 open pat2.wav \, 1;
#X obj 257 154 readsf~;
#X obj 257 189 dac~;
#X msg 222 130 0;
#X obj 414 152 readsf~;
#X obj 414 187 dac~;
#X msg 379 128 0;
#X msg 257 130 open pat3.wav \, 1;
#X msg 414 128 open pat4.wav \, 1;
#X obj 101 178 timer;
#X floatatom 101 211 15 0 0 0 - - -;
#X obj 101 127 t b b;
#X obj 74 44 metro 14770.8;
#X msg 74 15 bang;
#X msg 38 27 0;
#X connect 0 0 1 0;
#X connect 0 0 1 1;
#X connect 0 1 3 0;
#X connect 2 0 0 0;
#X connect 4 0 0 0;
#X connect 5 0 6 0;
#X connect 5 0 6 1;
#X connect 7 0 5 0;
#X connect 8 0 5 0;
#X connect 9 0 10 0;
#X connect 9 0 10 1;
#X connect 11 0 9 0;
#X connect 12 0 13 0;
#X connect 12 0 13 1;
#X connect 14 0 12 0;
#X connect 15 0 9 0;
#X connect 16 0 12 0;
#X connect 17 0 18 0;
#X connect 19 0 17 0;
#X connect 19 1 17 1;
#X connect 21 0 20 0;
#X connect 22 0 20 0;
