#N canvas 351 276 688 525 10;
#X text 218 15 select pattern 1 \, 2 \, 3 or 4;
#X floatatom 76 109 5 0 0 0 - - -;
#X floatatom 191 106 5 0 0 0 - - -;
#X floatatom 378 108 5 0 0 0 - - -;
#X text 59 106 x;
#X text 174 101 y;
#X text 361 104 z;
#X obj 80 408 sel 1 2 3 4;
#X obj 80 463 outlet;
#X text 131 464 output the pattern number selected;
#X obj 80 434 1;
#X obj 108 434 2;
#X obj 136 434 3;
#X obj 164 434 4;
#X floatatom 80 206 5 0 0 0 - - -;
#X obj 67 153 > -5;
#X obj 103 153 < 5;
#X obj 80 183 &;
#X floatatom 195 204 5 0 0 0 - - -;
#X obj 182 151 > -5;
#X obj 218 151 < 5;
#X obj 195 181 &;
#X floatatom 378 204 5 0 0 0 - - -;
#X obj 378 153 > 5;
#X floatatom 80 378 5 0 0 0 - - -;
#X obj 80 250 expr if($f1 == 1 && $f2 == 1 && $f3 == 1 \, 1 \, 0);
#X floatatom 259 204 5 0 0 0 - - -;
#X obj 259 152 > 5;
#X floatatom 441 205 5 0 0 0 - - -;
#X obj 428 152 > -5;
#X obj 464 152 < 5;
#X obj 441 182 &;
#X obj 93 273 expr if($f1 == 1 && $f2 == 1 && $f3 == 1 \, 2 \, 0);
#X floatatom 505 204 5 0 0 0 - - -;
#X obj 505 151 < -5;
#X obj 106 296 expr if($f1 == 1 && $f2 == 1 && $f3 == 1 \, 3 \, 0)
;
#X floatatom 302 203 5 0 0 0 - - -;
#X obj 302 151 < -5;
#X obj 116 319 expr if($f1 == 1 && $f2 == 1 && $f3 == 1 \, 4 \, 0)
;
#X obj 76 65 inlet;
#X obj 191 65 inlet;
#X obj 378 68 inlet;
#X connect 1 0 15 0;
#X connect 1 0 16 0;
#X connect 2 0 19 0;
#X connect 2 0 20 0;
#X connect 2 0 27 0;
#X connect 2 0 37 0;
#X connect 3 0 23 0;
#X connect 3 0 29 0;
#X connect 3 0 30 0;
#X connect 3 0 34 0;
#X connect 7 0 10 0;
#X connect 7 1 11 0;
#X connect 7 2 12 0;
#X connect 7 3 13 0;
#X connect 10 0 8 0;
#X connect 11 0 8 0;
#X connect 12 0 8 0;
#X connect 13 0 8 0;
#X connect 14 0 25 0;
#X connect 14 0 32 0;
#X connect 14 0 35 0;
#X connect 14 0 38 0;
#X connect 15 0 17 0;
#X connect 16 0 17 1;
#X connect 17 0 14 0;
#X connect 18 0 25 1;
#X connect 18 0 35 1;
#X connect 19 0 21 0;
#X connect 20 0 21 1;
#X connect 21 0 18 0;
#X connect 22 0 25 2;
#X connect 23 0 22 0;
#X connect 24 0 7 0;
#X connect 25 0 24 0;
#X connect 26 0 32 1;
#X connect 27 0 26 0;
#X connect 28 0 32 2;
#X connect 28 0 38 2;
#X connect 29 0 31 0;
#X connect 30 0 31 1;
#X connect 31 0 28 0;
#X connect 32 0 24 0;
#X connect 33 0 35 2;
#X connect 34 0 33 0;
#X connect 35 0 24 0;
#X connect 36 0 38 1;
#X connect 37 0 36 0;
#X connect 38 0 24 0;
#X connect 39 0 1 0;
#X connect 40 0 2 0;
#X connect 41 0 3 0;
