#N canvas 314 30 859 648 10;
#X obj 81 26 inlet;
#X obj 455 15 inlet;
#X text 498 15 selected pattern;
#X obj 455 41 sel 1 2 3 4;
#X obj 290 431 *~;
#X obj 382 431 *~;
#X obj 354 357 0;
#X obj 474 431 *~;
#X obj 566 431 *~;
#X obj 426 358 0;
#X obj 516 357 0;
#X obj 594 355 0;
#X msg 335 299 1;
#X msg 408 298 1;
#X msg 467 298 1;
#X msg 531 299 1;
#X obj 422 571 outlet~;
#X obj 81 129 readsf~;
#X msg 46 105 0;
#X obj 238 129 readsf~;
#X msg 203 105 0;
#X obj 81 233 readsf~;
#X msg 46 209 0;
#X obj 238 233 readsf~;
#X msg 203 209 0;
#X text 120 25 bang;
#X obj 215 24 r tempo;
#X obj 242 50 bng 15 250 50 0 empty empty empty 17 7 0 10 -262144 -1
-1;
#X msg 81 105 open 0_pat1.wav \, 1;
#X msg 81 209 open 0_pat3.wav \, 1;
#X msg 238 209 open 0_pat4.wav \, 1;
#X msg 238 105 open 0_pat2.wav \, 1;
#X connect 0 0 28 0;
#X connect 0 0 31 0;
#X connect 0 0 29 0;
#X connect 0 0 30 0;
#X connect 1 0 3 0;
#X connect 3 0 6 0;
#X connect 3 0 12 0;
#X connect 3 1 9 0;
#X connect 3 1 13 0;
#X connect 3 2 10 0;
#X connect 3 2 14 0;
#X connect 3 3 11 0;
#X connect 3 3 15 0;
#X connect 4 0 16 0;
#X connect 5 0 16 0;
#X connect 6 0 5 1;
#X connect 6 0 7 1;
#X connect 6 0 8 1;
#X connect 7 0 16 0;
#X connect 8 0 16 0;
#X connect 9 0 4 1;
#X connect 9 0 7 1;
#X connect 9 0 8 1;
#X connect 10 0 4 1;
#X connect 10 0 5 1;
#X connect 10 0 8 1;
#X connect 11 0 4 1;
#X connect 11 0 5 1;
#X connect 11 0 7 1;
#X connect 12 0 4 1;
#X connect 13 0 5 1;
#X connect 14 0 7 1;
#X connect 15 0 8 1;
#X connect 17 0 4 0;
#X connect 18 0 17 0;
#X connect 19 0 5 0;
#X connect 20 0 19 0;
#X connect 21 0 7 0;
#X connect 22 0 21 0;
#X connect 23 0 8 0;
#X connect 24 0 23 0;
#X connect 26 0 28 0;
#X connect 26 0 31 0;
#X connect 26 0 29 0;
#X connect 26 0 30 0;
#X connect 26 0 27 0;
#X connect 28 0 17 0;
#X connect 29 0 21 0;
#X connect 30 0 23 0;
#X connect 31 0 19 0;
