#N canvas 0 22 832 676 10;
#X obj 91 36 inlet;
#X obj 465 25 inlet;
#X text 508 25 selected pattern;
#X obj 465 51 sel 1 2 3 4;
#X obj 300 441 *~;
#X obj 392 441 *~;
#X obj 364 367 0;
#X obj 484 441 *~;
#X obj 576 441 *~;
#X obj 436 368 0;
#X obj 526 367 0;
#X obj 604 365 0;
#X msg 345 309 1;
#X msg 418 308 1;
#X msg 477 308 1;
#X msg 541 309 1;
#X obj 432 581 outlet~;
#X obj 91 139 readsf~;
#X msg 56 115 0;
#X obj 248 139 readsf~;
#X msg 213 115 0;
#X obj 91 243 readsf~;
#X msg 56 219 0;
#X obj 248 243 readsf~;
#X msg 213 219 0;
#X text 130 35 bang;
#X obj 225 34 r tempo;
#X obj 252 60 bng 15 250 50 0 empty empty empty 17 7 0 10 -262144 -1
-1;
#X msg 91 115 open 1_pat1.wav \, 1;
#X msg 248 115 open 1_pat2.wav \, 1;
#X msg 91 219 open 1_pat3.wav \, 1;
#X msg 248 219 open 1_pat4.wav \, 1;
#X connect 0 0 28 0;
#X connect 0 0 29 0;
#X connect 0 0 30 0;
#X connect 0 0 31 0;
#X connect 1 0 3 0;
#X connect 3 0 6 0;
#X connect 3 0 12 0;
#X connect 3 1 9 0;
#X connect 3 1 13 0;
#X connect 3 2 10 0;
#X connect 3 2 14 0;
#X connect 3 3 11 0;
#X connect 3 3 15 0;
#X connect 4 0 16 0;
#X connect 5 0 16 0;
#X connect 6 0 5 1;
#X connect 6 0 7 1;
#X connect 6 0 8 1;
#X connect 7 0 16 0;
#X connect 8 0 16 0;
#X connect 9 0 4 1;
#X connect 9 0 7 1;
#X connect 9 0 8 1;
#X connect 10 0 4 1;
#X connect 10 0 5 1;
#X connect 10 0 8 1;
#X connect 11 0 4 1;
#X connect 11 0 5 1;
#X connect 11 0 7 1;
#X connect 12 0 4 1;
#X connect 13 0 5 1;
#X connect 14 0 7 1;
#X connect 15 0 8 1;
#X connect 17 0 4 0;
#X connect 18 0 17 0;
#X connect 19 0 5 0;
#X connect 20 0 19 0;
#X connect 21 0 7 0;
#X connect 22 0 21 0;
#X connect 23 0 8 0;
#X connect 24 0 23 0;
#X connect 26 0 28 0;
#X connect 26 0 29 0;
#X connect 26 0 30 0;
#X connect 26 0 31 0;
#X connect 26 0 27 0;
#X connect 28 0 17 0;
#X connect 29 0 19 0;
#X connect 30 0 21 0;
#X connect 31 0 23 0;
